<?xml version="1.0" encoding="utf-8"?>
<!-- Generator: Adobe Illustrator 17.1.0, SVG Export Plug-In . SVG Version: 6.00 Build 0)  -->
<!DOCTYPE svg PUBLIC "-//W3C//DTD SVG 1.1//EN" "http://www.w3.org/Graphics/SVG/1.1/DTD/svg11.dtd">
<svg version="1.1" id="Stickers" xmlns="http://www.w3.org/2000/svg" xmlns:xlink="http://www.w3.org/1999/xlink" x="0px" y="0px"
	 width="76px" height="30px" viewBox="0 0 76 30" enable-background="new 0 0 76 30" xml:space="preserve">
<symbol  id="Sticker_x5F_Installment_x5F_11m_x5F_Normal" viewBox="-30.549 -10 61.098 20">
	<g id="BG_6_">
	</g>
	<path id="Name_3_" fill="#595959" d="M-6.468-4l2.084,2.965l-1.928,2.739h1.208l0.875-1.337c0.165-0.255,0.297-0.468,0.397-0.64
		c0.158,0.236,0.303,0.446,0.435,0.628l0.961,1.349h1.155l-1.971-2.686L-1.129-4h-1.187l-1.171,1.772L-3.799-1.75L-5.297-4H-6.468z
		 M3.27-4H2.303v6.16C2.07,1.938,1.765,1.717,1.387,1.494C1.009,1.272,0.67,1.106,0.369,0.995V1.93
		C0.91,2.184,1.382,2.492,1.787,2.854c0.404,0.361,0.691,0.713,0.859,1.053H3.27V-4z M8.791-4H7.824v6.16
		C7.591,1.938,7.285,1.717,6.908,1.494C6.53,1.272,6.191,1.106,5.891,0.995V1.93c0.54,0.254,1.013,0.563,1.418,0.924
		c0.404,0.361,0.69,0.713,0.859,1.053h0.623V-4z M11.782,1.704h1.504l1.499-4.565l1.664,4.565h1.392V-4h-0.967v4.592L15.188-4
		h-0.865l-1.595,4.813V-4h-0.945V1.704z M23.442-2.163l0.999-0.124c-0.158-0.583-0.449-1.036-0.875-1.358
		c-0.427-0.322-0.971-0.483-1.633-0.483c-0.835,0-1.496,0.257-1.985,0.771c-0.488,0.514-0.733,1.234-0.733,2.162
		c0,0.96,0.248,1.704,0.742,2.234s1.135,0.795,1.922,0.795c0.764,0,1.387-0.26,1.869-0.778c0.484-0.52,0.726-1.25,0.726-2.191
		c0-0.058-0.002-0.144-0.005-0.258h-4.254c0.035-0.627,0.213-1.107,0.531-1.439c0.318-0.334,0.717-0.5,1.192-0.5
		c0.354,0,0.657,0.093,0.907,0.279C23.097-2.868,23.295-2.571,23.442-2.163z M20.268-0.6h3.186
		c-0.043,0.479-0.164,0.839-0.365,1.079c-0.309,0.372-0.707,0.559-1.197,0.559c-0.444,0-0.818-0.148-1.12-0.446
		C20.468,0.295,20.301-0.103,20.268-0.6z M29.598-1.91l0.951-0.124c-0.104-0.655-0.37-1.168-0.798-1.539
		c-0.429-0.37-0.954-0.556-1.577-0.556c-0.78,0-1.408,0.255-1.882,0.766c-0.475,0.51-0.712,1.241-0.712,2.193
		c0,0.616,0.102,1.155,0.307,1.617c0.203,0.462,0.514,0.809,0.932,1.039c0.417,0.231,0.871,0.347,1.361,0.347
		c0.619,0,1.126-0.156,1.52-0.47c0.395-0.313,0.646-0.759,0.758-1.335l-0.939-0.146c-0.09,0.384-0.248,0.672-0.476,0.865
		s-0.503,0.29-0.825,0.29c-0.486,0-0.883-0.175-1.187-0.523c-0.304-0.35-0.456-0.901-0.456-1.657c0-0.767,0.146-1.323,0.439-1.67
		c0.294-0.348,0.678-0.521,1.15-0.521c0.379,0,0.695,0.116,0.95,0.35C29.369-2.752,29.529-2.395,29.598-1.91z"/>
	<g id="Icon_Installment_4_">
		<path fill="#FEDC01" d="M-19.549-1v8c4.389,0,8-3.611,8-8s-3.611-8-8-8s-8,3.611-8,8H-19.549z"/>
		<path fill="#3C966D" d="M-21.549,1h-8c0,2.121,0.843,4.157,2.343,5.657S-23.67,9-21.549,9V1z"/>
	</g>
	<g id="Border_icon_6_">
		<polygon fill="none" points="-10.549,-10 -30.549,-10 -30.549,10 -10.549,10 		"/>
	</g>
</symbol>
<use xlink:href="#Sticker_x5F_Installment_x5F_11m_x5F_Normal"  width="61.098" height="20" x="-30.549" y="-10" transform="matrix(1 0 0 -1 37.5488 15)" overflow="visible"/>
</svg>
