<?xml version="1.0" encoding="utf-8"?>
<!-- Generator: Adobe Illustrator 17.1.0, SVG Export Plug-In . SVG Version: 6.00 Build 0)  -->
<!DOCTYPE svg PUBLIC "-//W3C//DTD SVG 1.1//EN" "http://www.w3.org/Graphics/SVG/1.1/DTD/svg11.dtd">
<svg version="1.1" id="Stickers" xmlns="http://www.w3.org/2000/svg" xmlns:xlink="http://www.w3.org/1999/xlink" x="0px" y="0px"
	 width="76px" height="30px" viewBox="0 0 76 30" enable-background="new 0 0 76 30" xml:space="preserve">
<symbol  id="Sticker_x5F_Installment_x5F_4m_x5F_Normal" viewBox="-27.288 -9 54.576 18">
	<g id="BG_7_">
	</g>
	<path id="Name_3_" fill="#595959" d="M-4.208-4l2.084,2.965l-1.928,2.739h1.208l0.875-1.337c0.165-0.255,0.297-0.468,0.397-0.64
		c0.158,0.236,0.303,0.446,0.435,0.628l0.961,1.349h1.155L-0.99-0.981L1.132-4h-1.188l-1.171,1.772L-1.538-1.75L-3.037-4H-4.208z
		 M4.987-4v1.885H1.571v0.887l3.594,5.103h0.789v-5.103h1.064v-0.887H5.954V-4H4.987z M4.987-1.229v3.551L2.522-1.229H4.987z
		 M8.521,1.704h1.504l1.499-4.565l1.664,4.565h1.392V-4h-0.967v4.592L11.927-4h-0.865L9.467,0.813V-4H8.521V1.704z M20.183-2.163
		l0.998-0.124c-0.157-0.583-0.449-1.036-0.875-1.358s-0.971-0.483-1.633-0.483c-0.834,0-1.496,0.257-1.984,0.771
		s-0.733,1.234-0.733,2.162c0,0.96,0.247,1.704,0.741,2.234s1.135,0.795,1.923,0.795c0.763,0,1.386-0.26,1.869-0.778
		c0.483-0.52,0.726-1.25,0.726-2.191c0-0.058-0.002-0.144-0.006-0.258h-4.254c0.035-0.627,0.213-1.107,0.531-1.439
		c0.319-0.334,0.717-0.5,1.193-0.5c0.354,0,0.656,0.093,0.907,0.279S20.035-2.571,20.183-2.163z M17.008-0.6h3.185
		c-0.043,0.479-0.164,0.839-0.365,1.079C19.52,0.852,19.12,1.038,18.63,1.038c-0.443,0-0.817-0.148-1.119-0.446
		C17.208,0.295,17.04-0.103,17.008-0.6z M26.337-1.91l0.951-0.124c-0.104-0.655-0.37-1.168-0.798-1.539
		c-0.429-0.37-0.954-0.556-1.577-0.556c-0.78,0-1.408,0.255-1.882,0.766c-0.475,0.51-0.712,1.241-0.712,2.193
		c0,0.616,0.102,1.155,0.307,1.617c0.203,0.462,0.514,0.809,0.932,1.039c0.417,0.231,0.871,0.347,1.361,0.347
		c0.619,0,1.126-0.156,1.52-0.47c0.395-0.313,0.646-0.759,0.758-1.335l-0.939-0.146c-0.09,0.384-0.248,0.672-0.476,0.865
		s-0.503,0.29-0.825,0.29c-0.486,0-0.883-0.175-1.187-0.523c-0.304-0.35-0.456-0.901-0.456-1.657c0-0.767,0.146-1.323,0.439-1.67
		c0.294-0.348,0.678-0.521,1.15-0.521c0.379,0,0.695,0.116,0.95,0.35C26.108-2.752,26.269-2.395,26.337-1.91z"/>
	<g id="Icon_Installment_3_">
		<path fill="#FEDC01" d="M-17.288-1v8c4.389,0,8-3.611,8-8s-3.611-8-8-8s-8,3.611-8,8H-17.288z"/>
		<path fill="#3C966D" d="M-19.288,1h-8c0,2.121,0.843,4.157,2.343,5.657S-21.409,9-19.288,9V1z"/>
	</g>
</symbol>
<use xlink:href="#Sticker_x5F_Installment_x5F_4m_x5F_Normal"  width="54.576" height="18" x="-27.288" y="-9" transform="matrix(1 0 0 -1 38.2881 15)" overflow="visible"/>
</svg>
