<?xml version="1.0" encoding="utf-8"?>
<!-- Generator: Adobe Illustrator 17.1.0, SVG Export Plug-In . SVG Version: 6.00 Build 0)  -->
<!DOCTYPE svg PUBLIC "-//W3C//DTD SVG 1.1//EN" "http://www.w3.org/Graphics/SVG/1.1/DTD/svg11.dtd">
<svg version="1.1" id="Stickers" xmlns="http://www.w3.org/2000/svg" xmlns:xlink="http://www.w3.org/1999/xlink" x="0px" y="0px"
	 width="76px" height="30px" viewBox="0 0 76 30" enable-background="new 0 0 76 30" xml:space="preserve">
<symbol  id="Sticker_x5F_Installment_x5F_13m_x5F_Normal" viewBox="-30.957 -10 61.914 20">
	<g id="BG_6_">
	</g>
	<path id="Name_3_" fill="#595959" d="M-6.877-4l2.084,2.965l-1.928,2.739h1.209l0.875-1.337c0.164-0.255,0.297-0.468,0.397-0.64
		c0.157,0.236,0.303,0.446,0.435,0.628l0.962,1.349h1.155l-1.972-2.686L-1.537-4h-1.188l-1.171,1.772L-4.207-1.75L-5.705-4H-6.877z
		 M2.861-4H1.895v6.16C1.662,1.938,1.356,1.717,0.979,1.494C0.602,1.272,0.262,1.106-0.039,0.995V1.93
		c0.541,0.254,1.014,0.563,1.418,0.924S2.07,3.566,2.238,3.906h0.623V-4z M5.563-1.922l0.967,0.129
		c0.111-0.547,0.3-0.942,0.566-1.184C7.363-3.219,7.688-3.34,8.07-3.34c0.455,0,0.84,0.158,1.152,0.473
		c0.313,0.315,0.471,0.706,0.471,1.172c0,0.443-0.146,0.81-0.436,1.098S8.6-0.165,8.151-0.165c-0.183,0-0.41-0.036-0.683-0.107
		l0.107,0.849c0.064-0.007,0.117-0.011,0.156-0.011c0.412,0,0.782,0.107,1.111,0.322c0.33,0.215,0.494,0.546,0.494,0.993
		c0,0.355-0.119,0.648-0.359,0.881c-0.24,0.233-0.55,0.35-0.93,0.35c-0.375,0-0.689-0.118-0.939-0.354S6.697,2.166,6.626,1.693
		L5.659,1.865c0.118,0.648,0.387,1.15,0.806,1.507s0.939,0.534,1.563,0.534c0.43,0,0.826-0.092,1.188-0.276s0.639-0.437,0.83-0.755
		s0.287-0.657,0.287-1.016c0-0.34-0.092-0.649-0.273-0.929C9.875,0.651,9.605,0.43,9.247,0.265c0.466-0.107,0.827-0.33,1.085-0.669
		c0.258-0.338,0.387-0.762,0.387-1.27c0-0.688-0.25-1.271-0.752-1.749C9.465-3.9,8.832-4.14,8.065-4.14
		c-0.69,0-1.265,0.206-1.722,0.618C5.888-3.11,5.627-2.576,5.563-1.922z M12.19,1.704h1.504l1.499-4.565l1.664,4.565h1.392V-4
		h-0.967v4.592L15.596-4H14.73l-1.595,4.813V-4H12.19V1.704z M23.851-2.163l0.999-0.124C24.691-2.87,24.4-3.323,23.975-3.646
		c-0.427-0.322-0.971-0.483-1.633-0.483c-0.835,0-1.496,0.257-1.985,0.771c-0.488,0.514-0.733,1.234-0.733,2.162
		c0,0.96,0.248,1.704,0.742,2.234s1.135,0.795,1.922,0.795c0.764,0,1.387-0.26,1.869-0.778c0.484-0.52,0.726-1.25,0.726-2.191
		c0-0.058-0.002-0.144-0.005-0.258h-4.254c0.035-0.627,0.213-1.107,0.531-1.439c0.318-0.334,0.717-0.5,1.192-0.5
		c0.354,0,0.657,0.093,0.907,0.279C23.505-2.868,23.703-2.571,23.851-2.163z M20.676-0.6h3.186
		c-0.043,0.479-0.164,0.839-0.365,1.079c-0.309,0.372-0.707,0.559-1.197,0.559c-0.444,0-0.818-0.148-1.12-0.446
		C20.876,0.295,20.709-0.103,20.676-0.6z M30.006-1.91l0.951-0.124c-0.104-0.655-0.37-1.168-0.798-1.539
		c-0.429-0.37-0.954-0.556-1.577-0.556c-0.78,0-1.408,0.255-1.882,0.766c-0.475,0.51-0.712,1.241-0.712,2.193
		c0,0.616,0.102,1.155,0.307,1.617c0.203,0.462,0.514,0.809,0.932,1.039c0.417,0.231,0.871,0.347,1.361,0.347
		c0.619,0,1.126-0.156,1.52-0.47c0.395-0.313,0.646-0.759,0.758-1.335l-0.939-0.146c-0.09,0.384-0.248,0.672-0.476,0.865
		s-0.503,0.29-0.825,0.29c-0.486,0-0.883-0.175-1.187-0.523c-0.304-0.35-0.456-0.901-0.456-1.657c0-0.767,0.146-1.323,0.439-1.67
		c0.294-0.348,0.678-0.521,1.15-0.521c0.379,0,0.695,0.116,0.95,0.35C29.777-2.752,29.938-2.395,30.006-1.91z"/>
	<g id="Icon_Installment_3_">
		<path fill="#FEDC01" d="M-19.957-1v8c4.389,0,8-3.611,8-8s-3.611-8-8-8s-8,3.611-8,8H-19.957z"/>
		<path fill="#3C966D" d="M-21.957,1h-8c0,2.121,0.843,4.157,2.343,5.657S-24.078,9-21.957,9V1z"/>
	</g>
	<g id="Border_icon_6_">
		<polygon fill="none" points="-10.957,-10 -30.957,-10 -30.957,10 -10.957,10 		"/>
	</g>
</symbol>
<use xlink:href="#Sticker_x5F_Installment_x5F_13m_x5F_Normal"  width="61.914" height="20" x="-30.957" y="-10" transform="matrix(1 0 0 -1 37.957 15)" overflow="visible"/>
</svg>
