<?xml version="1.0" encoding="utf-8"?>
<!-- Generator: Adobe Illustrator 21.0.0, SVG Export Plug-In . SVG Version: 6.00 Build 0)  -->
<svg version="1.1" id="Stickers" xmlns="http://www.w3.org/2000/svg" xmlns:xlink="http://www.w3.org/1999/xlink" x="0px" y="0px"
	 width="76px" height="30px" viewBox="0 0 76 30" enable-background="new 0 0 76 30" xml:space="preserve">
<symbol  id="Icon_x5F_Fishka" viewBox="-10 -10 20 20">
	<circle fill="#EF4D51" cx="0" cy="0" r="9"/>
	<path fill="#FFFFFF" d="M2.623,4.943c0.801,0,1.344-0.486,1.344-1.5c0-1.016-0.558-1.401-1.344-1.401H0.293V0.746h1.544
		c0.8,0,1.443-0.243,1.443-1.258c0-1.015-0.658-1.272-1.443-1.272H0.293v-1.773c0-0.987-0.415-1.386-1.487-1.386h-0.285
		c-1.116,0-1.487,0.4-1.487,1.386v7.085c0,1.014,0.415,1.414,1.487,1.414H2.623z"/>
	<rect id="Border_Icon_25_" x="-10" y="-10" opacity="0.25" fill="none" width="20" height="20"/>
</symbol>
<g id="Stickers_x5F_Fishka_x5F_Normal_1_">
	<path id="Name_17_" fill="#595959" d="M33.902,19v-7.874h5.312v0.929h-4.27v2.439h3.695v0.929h-3.695V19H33.902z M40.67,12.238
		v-1.112h0.967v1.112H40.67z M40.67,19v-5.704h0.967V19H40.67z M42.941,17.297l0.956-0.15c0.054,0.384,0.203,0.678,0.449,0.881
		c0.245,0.205,0.588,0.307,1.028,0.307c0.444,0,0.773-0.091,0.988-0.271s0.322-0.393,0.322-0.637c0-0.218-0.095-0.39-0.285-0.516
		c-0.132-0.086-0.462-0.194-0.988-0.327c-0.709-0.179-1.201-0.334-1.474-0.465c-0.274-0.131-0.482-0.312-0.623-0.542
		c-0.142-0.231-0.212-0.486-0.212-0.766c0-0.254,0.058-0.489,0.174-0.706c0.117-0.217,0.275-0.396,0.476-0.54
		c0.15-0.111,0.355-0.205,0.615-0.282c0.259-0.077,0.538-0.115,0.835-0.115c0.448,0,0.841,0.064,1.179,0.193
		c0.339,0.129,0.588,0.304,0.75,0.523c0.161,0.221,0.272,0.515,0.333,0.884l-0.945,0.129c-0.043-0.294-0.167-0.522-0.374-0.688
		c-0.206-0.165-0.497-0.247-0.873-0.247c-0.444,0-0.761,0.073-0.951,0.22c-0.19,0.147-0.285,0.319-0.285,0.516
		c0,0.126,0.04,0.238,0.118,0.339c0.079,0.104,0.202,0.189,0.371,0.258c0.097,0.036,0.381,0.118,0.854,0.247
		c0.684,0.183,1.161,0.332,1.431,0.448c0.271,0.116,0.483,0.286,0.637,0.508s0.231,0.498,0.231,0.827
		c0,0.322-0.094,0.626-0.282,0.91c-0.188,0.285-0.459,0.505-0.814,0.661c-0.354,0.155-0.755,0.233-1.203,0.233
		c-0.741,0-1.306-0.154-1.695-0.462C43.297,18.359,43.049,17.902,42.941,17.297z M49.048,19v-7.874h0.967v2.825
		c0.451-0.522,1.021-0.784,1.708-0.784c0.422,0,0.79,0.083,1.101,0.25c0.312,0.166,0.534,0.396,0.669,0.69
		c0.134,0.293,0.201,0.719,0.201,1.277V19h-0.967v-3.615c0-0.482-0.104-0.835-0.314-1.055C52.204,14.109,51.908,14,51.524,14
		c-0.287,0-0.556,0.074-0.809,0.223c-0.252,0.148-0.432,0.35-0.54,0.604c-0.107,0.255-0.161,0.605-0.161,1.053V19H49.048z
		 M55.391,19v-7.874h0.967v4.49l2.288-2.32h1.251l-2.181,2.116L60.118,19h-1.192l-1.885-2.916l-0.682,0.654V19H55.391z
		 M64.828,18.297c-0.358,0.304-0.703,0.519-1.034,0.645c-0.331,0.125-0.687,0.188-1.066,0.188c-0.626,0-1.108-0.153-1.445-0.459
		c-0.336-0.307-0.505-0.697-0.505-1.174c0-0.279,0.063-0.534,0.19-0.766c0.127-0.23,0.294-0.416,0.5-0.556
		c0.206-0.14,0.438-0.245,0.695-0.317c0.19-0.05,0.476-0.098,0.859-0.145c0.781-0.093,1.355-0.204,1.724-0.333
		c0.003-0.133,0.005-0.217,0.005-0.253c0-0.394-0.091-0.671-0.274-0.832c-0.247-0.219-0.614-0.328-1.101-0.328
		c-0.455,0-0.791,0.08-1.007,0.239c-0.217,0.159-0.377,0.441-0.481,0.847l-0.945-0.129c0.086-0.405,0.228-0.731,0.424-0.98
		s0.481-0.44,0.854-0.575c0.373-0.134,0.804-0.201,1.294-0.201c0.487,0,0.883,0.058,1.187,0.172s0.528,0.259,0.671,0.433
		s0.244,0.393,0.301,0.658c0.032,0.164,0.048,0.461,0.048,0.891v1.289c0,0.899,0.021,1.468,0.062,1.706
		c0.041,0.238,0.123,0.466,0.244,0.685h-1.01C64.921,18.8,64.857,18.564,64.828,18.297z M64.748,16.137
		c-0.351,0.144-0.877,0.266-1.579,0.365c-0.397,0.058-0.679,0.122-0.843,0.193c-0.165,0.072-0.292,0.177-0.381,0.314
		s-0.134,0.291-0.134,0.459c0,0.258,0.098,0.473,0.293,0.645c0.195,0.172,0.48,0.258,0.856,0.258c0.373,0,0.704-0.081,0.994-0.244
		s0.503-0.386,0.639-0.668c0.104-0.219,0.156-0.541,0.156-0.967V16.137z"/>
	
		<use xlink:href="#Icon_x5F_Fishka"  width="20" height="20" x="-10" y="-10" transform="matrix(1 0 0 -1 19 15)" overflow="visible"/>
</g>
</svg>
