<svg width="76" height="30" viewBox="0 0 76 30" fill="none" xmlns="http://www.w3.org/2000/svg">
<rect width="76" height="30" fill="white"/>
<path fill-rule="evenodd" clip-rule="evenodd" d="M9.39769 24.5422C8.51434 24.5422 7.64337 24.3111 6.98781 23.6953C6.32062 23.0686 6.04446 22.2018 6.04446 21.2806V15.8905C5.8991 15.818 5.75828 15.7279 5.62562 15.6168C5.04576 15.131 4.85327 14.4434 4.85327 13.7837V11.7595C4.85327 11.0719 5.07303 10.392 5.65065 9.91852C6.18441 9.48097 6.84329 9.3725 7.39849 9.3725H7.46164C7.42252 9.15622 7.40225 8.93241 7.40225 8.70235C7.40225 6.3857 9.26809 4.79102 11.4385 4.79102C12.4199 4.79102 13.3112 5.1224 13.997 5.72418C14.6849 5.12202 15.5776 4.79102 16.5532 4.79102C18.7341 4.79102 20.5895 6.38778 20.5895 8.70235C20.5895 8.93254 20.5692 9.15634 20.5302 9.3725H20.6015C21.1655 9.3725 21.837 9.47609 22.3744 9.92633C22.9543 10.4121 23.1467 11.0998 23.1467 11.7595V13.7837C23.1467 14.4434 22.9543 15.131 22.3744 15.6168C22.2417 15.7279 22.1009 15.818 21.9555 15.8905V21.2806C21.9555 22.2051 21.6754 23.0711 21.0079 23.6964C20.3525 24.3104 19.4831 24.5422 18.6023 24.5422H9.39769ZM14.6789 15.0248H20.6015C20.6735 15.0248 20.7429 15.0226 20.8097 15.018C21.1374 14.9956 21.4023 14.9169 21.5983 14.7704C21.8618 14.5734 22.0009 14.2539 22.0009 13.7837V11.7595C22.0009 10.8682 21.5012 10.5183 20.6015 10.5183H18.6689C18.9971 10.2071 19.2369 9.81911 19.3569 9.3725C19.4137 9.16155 19.4437 8.93752 19.4437 8.70235C19.4437 7.08634 18.1692 5.9368 16.5532 5.9368C15.8482 5.9368 15.2163 6.17116 14.7329 6.60308C14.5227 6.7909 14.3406 7.01608 14.1928 7.27558C14.1317 7.38279 14.0764 7.49586 14.0275 7.61457C14.0166 7.64091 14.0061 7.66753 13.9958 7.69443C13.9856 7.66752 13.975 7.6409 13.9642 7.61455C13.9156 7.49651 13.8608 7.38406 13.8003 7.2774C13.6525 7.01663 13.4704 6.79047 13.2599 6.602C12.7783 6.17077 12.1479 5.9368 11.4385 5.9368C9.83085 5.9368 8.54803 7.08634 8.54803 8.70235C8.54803 8.93752 8.57804 9.16155 8.63503 9.3725C8.75567 9.81911 8.99725 10.2071 9.33105 10.5183H7.39849C6.54051 10.5183 5.99906 10.8682 5.99906 11.7595V13.7837C5.99906 14.2539 6.13816 14.5734 6.40168 14.7704C6.5977 14.9169 6.86257 14.9956 7.19024 15.018C7.25707 15.0226 7.3265 15.0248 7.39849 15.0248H13.3128V10.5183H14.6789V15.0248ZM15.1485 7.91673C15.1031 7.96942 15.0604 8.02539 15.0208 8.08454C14.8371 8.35839 14.7179 8.7003 14.6869 9.09978C14.6816 9.16833 14.6789 9.23856 14.6789 9.31044V10.5183H15.9784C17.2945 10.5183 18.0525 9.69363 18.0525 8.77732C18.0525 7.86103 17.3861 7.32791 16.4699 7.32791C15.946 7.32791 15.4756 7.5373 15.1485 7.91673ZM13.3048 9.09978C13.2738 8.7003 13.1545 8.3584 12.9709 8.08454C12.9314 8.02563 12.8889 7.96987 12.8437 7.91737C12.5166 7.53753 12.046 7.32791 11.5218 7.32791C10.6055 7.32791 9.93914 7.86103 9.93914 8.77732C9.93914 9.69363 10.7055 10.5183 12.0133 10.5183H13.3128V9.31044C13.3128 9.23856 13.3101 9.16832 13.3048 9.09978ZM20.8097 15.9161H14.6789V23.3964H18.6023C19.9851 23.3964 20.8097 22.6718 20.8097 21.2806V15.9161ZM7.19024 21.2806C7.19024 22.6718 8.00658 23.3964 9.39769 23.3964H13.3128V15.9161H7.19024V21.2806Z" fill="white"/>
<path d="M7.19027 21.2806C7.19027 22.6717 8.00661 23.3964 9.39772 23.3964H13.3128V15.9161H7.19027V21.2806ZM14.6789 23.3964H18.6024C19.9851 23.3964 20.8098 22.6717 20.8098 21.2806V15.9161H14.6789V23.3964ZM5.99908 13.7836C5.99908 14.6749 6.49888 15.0248 7.39852 15.0248H13.3128V10.5183H12.0133C10.7055 10.5183 9.93917 9.69359 9.93917 8.77729C9.93917 7.86099 10.6056 7.32787 11.5219 7.32787C12.5131 7.32787 13.3128 8.07757 13.3128 9.31041V10.5183H14.6789V9.31041C14.6789 8.07757 15.4786 7.32787 16.4699 7.32787C17.3861 7.32787 18.0525 7.86099 18.0525 8.77729C18.0525 9.69359 17.2945 10.5183 15.9784 10.5183H14.6789V15.0248H20.6016C21.5012 15.0248 22.001 14.6749 22.001 13.7836V11.7594C22.001 10.8681 21.5012 10.5183 20.6016 10.5183H18.669C19.1521 10.0601 19.4437 9.43536 19.4437 8.70232C19.4437 7.08631 18.1692 5.93677 16.5532 5.93677C15.387 5.93677 14.4207 6.57818 13.9959 7.6944C13.571 6.57818 12.6131 5.93677 11.4386 5.93677C9.83087 5.93677 8.54806 7.08631 8.54806 8.70232C8.54806 9.43536 8.83961 10.0601 9.33108 10.5183H7.39852C6.54053 10.5183 5.99908 10.8681 5.99908 11.7594V13.7836Z" fill="url(#paint0_linear_321_6065)"/>
<path d="M27.8594 10.626H34.0522V18.5H33.0049V11.5552H28.9014V18.5H27.8594V10.626ZM35.5715 15.6479C35.5715 14.5916 35.8651 13.8092 36.4523 13.3008C36.9429 12.8783 37.5409 12.667 38.2463 12.667C39.0305 12.667 39.6714 12.9248 40.1691 13.4404C40.6669 13.9525 40.9157 14.6615 40.9157 15.5674C40.9157 16.3014 40.8047 16.8797 40.5827 17.3022C40.3643 17.7212 40.0438 18.047 39.6213 18.2798C39.2023 18.5125 38.744 18.6289 38.2463 18.6289C37.4478 18.6289 36.8015 18.3729 36.3073 17.8608C35.8168 17.3488 35.5715 16.6112 35.5715 15.6479ZM36.5651 15.6479C36.5651 16.3784 36.7245 16.9263 37.0432 17.2915C37.3618 17.6532 37.7629 17.834 38.2463 17.834C38.7261 17.834 39.1254 17.6514 39.444 17.2861C39.7627 16.9209 39.9221 16.3641 39.9221 15.6157C39.9221 14.9103 39.7609 14.3768 39.4387 14.0151C39.12 13.6499 38.7225 13.4673 38.2463 13.4673C37.7629 13.4673 37.3618 13.6481 37.0432 14.0098C36.7245 14.3714 36.5651 14.9175 36.5651 15.6479ZM42.87 12.7959H46.8446V17.7051H47.4623V20.1167H46.6674V18.5H42.1771V20.1167H41.3822V17.7051H41.8925C42.5728 16.7812 42.8987 15.1449 42.87 12.7959ZM43.6757 13.5962C43.6041 15.4474 43.3176 16.8171 42.8163 17.7051H45.8832V13.5962H43.6757ZM52.5533 17.7964C52.1952 18.1007 51.8497 18.3156 51.5167 18.4409C51.1873 18.5662 50.8328 18.6289 50.4532 18.6289C49.8266 18.6289 49.345 18.4767 49.0084 18.1724C48.6718 17.8644 48.5035 17.4723 48.5035 16.9961C48.5035 16.7168 48.5662 16.4626 48.6915 16.2334C48.8204 16.0007 48.9869 15.8145 49.191 15.6748C49.3987 15.5352 49.6314 15.4295 49.8893 15.3579C50.079 15.3078 50.3655 15.2594 50.7486 15.2129C51.5292 15.1198 52.1039 15.0088 52.4728 14.8799C52.4763 14.7474 52.4781 14.6632 52.4781 14.6274C52.4781 14.2336 52.3868 13.9561 52.2042 13.7949C51.9571 13.5765 51.5901 13.4673 51.1031 13.4673C50.6484 13.4673 50.3118 13.5479 50.0934 13.709C49.8785 13.8665 49.7192 14.1476 49.6153 14.5522L48.67 14.4233C48.756 14.0187 48.8974 13.6929 49.0943 13.4458C49.2913 13.1951 49.5759 13.0036 49.9483 12.8711C50.3207 12.735 50.7522 12.667 51.2428 12.667C51.7298 12.667 52.1254 12.7243 52.4298 12.8389C52.7341 12.9535 52.9579 13.0985 53.1012 13.2739C53.2444 13.4458 53.3447 13.6642 53.402 13.9292C53.4342 14.0939 53.4503 14.3911 53.4503 14.8208V16.1099C53.4503 17.0086 53.47 17.578 53.5094 17.8179C53.5523 18.0542 53.6347 18.2816 53.7564 18.5H52.7467C52.6464 18.2995 52.582 18.0649 52.5533 17.7964ZM52.4728 15.6372C52.1218 15.7804 51.5955 15.9022 50.8937 16.0024C50.4962 16.0597 50.2151 16.1242 50.0504 16.1958C49.8857 16.2674 49.7586 16.373 49.669 16.5127C49.5795 16.6488 49.5348 16.8009 49.5348 16.9692C49.5348 17.2271 49.6314 17.4419 49.8248 17.6138C50.0217 17.7856 50.3082 17.8716 50.6842 17.8716C51.0566 17.8716 51.3878 17.791 51.6778 17.6299C51.9679 17.4652 52.1809 17.2414 52.317 16.9585C52.4208 16.7401 52.4728 16.4178 52.4728 15.9917V15.6372ZM55.2542 20.686V12.7959H56.1351V13.5371C56.3427 13.2471 56.5773 13.0304 56.8387 12.8872C57.1001 12.7404 57.417 12.667 57.7894 12.667C58.2763 12.667 58.706 12.7923 59.0784 13.043C59.4508 13.2936 59.7319 13.6481 59.9217 14.1064C60.1115 14.5612 60.2063 15.0607 60.2063 15.605C60.2063 16.1886 60.1007 16.715 59.8895 17.1841C59.6818 17.6496 59.3774 18.0076 58.9764 18.2583C58.5789 18.5054 58.16 18.6289 57.7195 18.6289C57.3973 18.6289 57.1072 18.5609 56.8494 18.4248C56.5952 18.2887 56.3857 18.1169 56.221 17.9092V20.686H55.2542ZM56.1297 15.6802C56.1297 16.4142 56.2783 16.9567 56.5755 17.3076C56.8727 17.6585 57.2326 17.834 57.6551 17.834C58.0848 17.834 58.4518 17.6532 58.7562 17.2915C59.0641 16.9263 59.2181 16.3623 59.2181 15.5996C59.2181 14.8727 59.0677 14.3285 58.7669 13.9668C58.4697 13.6051 58.1134 13.4243 57.698 13.4243C57.2863 13.4243 56.921 13.6177 56.6023 14.0044C56.2872 14.3875 56.1297 14.9461 56.1297 15.6802ZM61.3174 15.6479C61.3174 14.5916 61.611 13.8092 62.1982 13.3008C62.6888 12.8783 63.2868 12.667 63.9922 12.667C64.7764 12.667 65.4173 12.9248 65.915 13.4404C66.4128 13.9525 66.6616 14.6615 66.6616 15.5674C66.6616 16.3014 66.5506 16.8797 66.3286 17.3022C66.1102 17.7212 65.7897 18.047 65.3672 18.2798C64.9482 18.5125 64.4899 18.6289 63.9922 18.6289C63.1937 18.6289 62.5474 18.3729 62.0532 17.8608C61.5627 17.3488 61.3174 16.6112 61.3174 15.6479ZM62.311 15.6479C62.311 16.3784 62.4704 16.9263 62.7891 17.2915C63.1077 17.6532 63.5088 17.834 63.9922 17.834C64.472 17.834 64.8713 17.6514 65.1899 17.2861C65.5086 16.9209 65.668 16.3641 65.668 15.6157C65.668 14.9103 65.5068 14.3768 65.1846 14.0151C64.8659 13.6499 64.4684 13.4673 63.9922 13.4673C63.5088 13.4673 63.1077 13.6481 62.7891 14.0098C62.4704 14.3714 62.311 14.9175 62.311 15.6479ZM68.0949 12.7959H69.0617V15.2612C69.3697 15.2612 69.5845 15.2021 69.7062 15.084C69.8316 14.9658 70.0142 14.6221 70.2541 14.0527C70.4439 13.6016 70.5979 13.3044 70.716 13.1611C70.8342 13.0179 70.9702 12.9212 71.1242 12.8711C71.2782 12.821 71.5253 12.7959 71.8654 12.7959H72.0588V13.5962L71.7902 13.5908C71.536 13.5908 71.3731 13.6284 71.3015 13.7036C71.2263 13.7824 71.1117 14.0169 70.9577 14.4072C70.8109 14.7796 70.6766 15.0374 70.5549 15.1807C70.4331 15.3239 70.2451 15.4546 69.9909 15.5728C70.4063 15.6838 70.8145 16.0705 71.2155 16.7329L72.2736 18.5H71.2102L70.1789 16.7329C69.9676 16.3784 69.7832 16.1457 69.6257 16.0347C69.4681 15.9201 69.2801 15.8628 69.0617 15.8628V18.5H68.0949V12.7959Z" fill="#1C1C1E" fill-opacity="0.75"/>
<defs>
<linearGradient id="paint0_linear_321_6065" x1="5.93236" y1="5.35775" x2="21.1368" y2="24.2857" gradientUnits="userSpaceOnUse">
<stop offset="0.0221116" stop-color="#FF4969"/>
<stop offset="1" stop-color="#ED1C67"/>
</linearGradient>
</defs>
</svg>
