<?xml version="1.0" standalone="no"?>
<!DOCTYPE svg PUBLIC "-//W3C//DTD SVG 20010904//EN"
 "http://www.w3.org/TR/2001/REC-SVG-20010904/DTD/svg10.dtd">
<svg version="1.0" xmlns="http://www.w3.org/2000/svg"
 width="135.000000pt" height="135.000000pt" viewBox="0 0 135.000000 135.000000"
 preserveAspectRatio="xMidYMid meet">

<g transform="translate(0.000000,135.000000) scale(0.100000,-0.100000)"
fill="#000000" stroke="none">
<path d="M496 1241 c-92 -61 -110 -223 -35 -314 109 -133 279 21 225 205 -31
107 -118 156 -190 109z"/>
<path d="M875 1178 c-134 -74 -169 -287 -58 -351 46 -26 99 -16 152 30 134
114 112 334 -32 333 -23 0 -51 -6 -62 -12z"/>
<path d="M208 1005 c-14 -8 -36 -35 -48 -61 -27 -54 -23 -119 10 -184 41 -80
136 -106 190 -52 118 119 -12 373 -152 297z"/>
<path d="M1065 844 c-73 -38 -115 -105 -115 -183 0 -42 5 -56 29 -83 26 -29
36 -33 78 -33 37 0 60 7 92 28 134 89 126 287 -13 287 -22 0 -54 -7 -71 -16z"/>
<path d="M608 826 c-39 -14 -108 -68 -168 -131 -19 -20 -60 -54 -91 -76 -68
-46 -124 -109 -140 -157 -17 -51 -7 -133 21 -172 40 -57 88 -70 241 -67 l134
2 93 -42 c71 -34 104 -43 145 -43 70 0 123 31 154 89 41 79 26 168 -48 273
-21 31 -61 104 -88 161 -53 113 -84 146 -156 166 -49 13 -51 13 -97 -3z m-58
-346 l0 -150 -35 0 -35 0 0 102 0 102 -28 -27 -28 -27 -22 22 -22 22 52 53
c42 43 59 53 85 53 l33 0 0 -150z m260 122 c40 -41 55 -103 40 -169 -15 -70
-53 -103 -119 -103 -81 0 -124 52 -124 150 0 99 43 150 126 150 40 0 54 -5 77
-28z"/>
<path d="M713 559 c-41 -15 -43 -137 -3 -159 39 -21 70 12 70 75 0 69 -25 100
-67 84z"/>
</g>
</svg>
